<svg width="301" height="66" viewBox="0 0 301 66" fill="none" xmlns="http://www.w3.org/2000/svg">
<path d="M73.732 5.8417C69.5639 2.10259 63.7031 0.043457 57.2257 0.043457C50.8835 0.043457 44.7713 2.41348 40.456 6.54436L40.098 6.88571L39.7405 6.54436C35.4251 2.41348 29.3135 0.043457 22.9719 0.043457C16.4954 0.043457 10.6336 2.10259 6.46548 5.8417C2.4738 9.42221 0 13.1408 0 20.6012L0.00156122 63.9612H11.6868L11.6889 20.6012C11.6889 14.8991 16.6437 10.4321 22.9724 10.4321C29.2989 10.4321 34.2559 14.8985 34.2559 20.6012L34.2569 63.9612H45.9432L45.9453 20.6012C45.9453 14.8991 50.9001 10.4321 57.2272 10.4321C63.5548 10.4321 68.5112 14.8985 68.5112 20.6012L68.5133 63.9612H80.197L80.2006 20.6012C80.1975 13.1408 77.7237 9.42221 73.732 5.8417Z" fill="#EC008C"/>
<path d="M127.11 5.77759C123.147 2.02641 117.539 0.0439453 110.891 0.0439453C99.8229 0.0439453 93.5135 6.41618 90.4782 9.48624L95.2931 18.0237L95.3176 17.9969C98.1993 14.8465 106.077 7.9092 116.954 11.5312L117.003 11.5501C119.246 12.5616 121.917 14.6149 121.924 18.6534L121.925 18.6796C121.982 19.1864 122.012 19.7257 122.012 20.2834V23.6313L109.443 26.1526C103.417 27.3484 98.5417 29.4059 94.9486 32.2685C90.4985 35.8139 88.2417 40.4079 88.2417 45.9257C88.2417 51.7655 90.6484 56.6972 95.2026 60.1895C99.2468 63.2911 104.74 64.9999 110.669 64.9999C116.583 64.9999 122.12 63.0285 126.26 59.4495C130.597 55.6999 132.986 50.4836 132.986 44.7604V20.284C132.984 14.0152 131.227 9.6774 127.11 5.77759ZM122.012 44.7594C122.012 47.6703 120.976 50.3423 119.095 52.2801C117.022 54.4159 114.07 55.5471 110.557 55.5471C108.111 55.5471 103.611 55.0671 100.97 51.8495C98.9133 49.344 98.5958 45.7104 100.182 42.8026C102.988 37.6619 109.393 35.7241 115.291 34.5068L115.942 34.3728C117.249 34.1061 120.309 33.4796 121.39 33.249L122.012 33.1156V44.7594Z" fill="#EC008C"/>
<path d="M177.042 5.16741C176.108 4.33609 175.119 3.58407 174.102 2.9313C171.728 1.40835 169.316 0.476198 166.928 0.163205C162.296 -0.442824 156.805 0.664729 152.6 3.05629C151.249 3.82354 150.009 4.73941 148.913 5.77764C145.103 9.38494 143.039 12.7664 143.039 20.284V63.9623H154.01L154.011 22.6625C154.011 21.6736 154.011 20.6826 154.012 19.6948C154.013 18.6377 154.036 17.6835 154.307 16.7109C154.75 15.1328 155.731 13.6581 157.072 12.5585C157.679 12.0606 158.334 11.652 159.017 11.3438C163.285 9.55614 167.955 10.6028 171.611 14.1318C176.502 9.53408 178.34 7.80947 179.044 7.1546C178.463 6.50341 177.28 5.38063 177.042 5.16741Z" fill="#EC008C"/>
<path d="M277.904 0.043457C266.836 0.043457 260.526 6.4157 257.491 9.48576L262.307 18.0232L262.332 17.9964C265.214 14.846 273.092 7.90871 283.969 11.5307L284.017 11.5496C286.261 12.5616 288.931 14.615 288.939 18.6529L288.94 18.6791C288.997 19.1859 289.026 19.7252 289.026 20.283V23.6308L276.457 26.1521C270.431 27.3479 265.554 29.4054 261.963 32.2681C257.511 35.8134 255.255 40.408 255.255 45.9253C255.255 51.765 257.662 56.6967 262.216 60.189C266.261 63.2906 271.753 64.9994 277.683 64.9994C283.597 64.9994 289.134 63.028 293.275 59.4491C297.611 55.6995 300 50.4831 300 44.7599V20.284C300 14.4332 297.969 9.41696 294.125 5.77763C290.159 2.02644 284.552 0.043457 277.904 0.043457ZM289.024 44.7594C289.024 47.6704 287.988 50.3423 286.107 52.2802C284.035 54.416 281.083 55.5472 277.569 55.5472C275.124 55.5472 270.624 55.0672 267.982 51.8495C265.925 49.344 265.608 45.7105 267.195 42.8027C270 37.6619 276.406 35.7241 282.303 34.5068L282.933 34.3776C284.244 34.1093 287.315 33.4812 288.403 33.2506L289.024 33.1172V44.7594V44.7594Z" fill="#EC008C"/>
<path d="M236.97 29.8377C234.144 28.3168 231.2 27.1982 227.922 25.9951L227.44 25.8197C225.325 25.0451 223.141 24.2458 221.119 23.2149C218.569 21.9152 217.147 20.4931 216.645 18.7401L216.629 18.6855C216.19 17.0675 216.556 15.3323 217.611 14.0357C218.601 12.8174 220.137 11.8773 222.175 11.2409C223.075 10.9594 224.026 10.7577 224.994 10.6401C228.497 10.2163 232.107 10.8501 235.429 12.4713C237.656 13.5578 239.751 15.0514 241.653 16.9078C241.742 16.995 242.521 17.7827 242.703 17.9954L242.729 18.0238L242.744 17.9959C242.778 17.9345 247.264 9.98154 247.544 9.48527C244.506 6.41311 238.198 0.0429688 227.131 0.0429688C220.286 0.0429688 214.086 2.24705 210.123 6.09014C205.996 10.0918 204.386 16.0266 205.918 21.5764C207.085 25.8103 210.425 29.5914 215.318 32.2271C218.381 33.8756 221.743 35.1391 224.653 36.1947L225.022 36.3286C227.569 37.2529 230.205 38.2055 232.521 39.657C235.25 41.3696 236.633 43.5847 236.633 46.2409C236.633 49.9012 233.673 52.4698 230.475 53.8767C226.912 55.4432 222.772 54.937 219.109 53.8331C214.128 52.359 209.093 47.2203 209.043 47.1694L204.094 55.5614C207.134 58.6356 213.443 64.9989 224.502 64.9989C225.398 64.9989 226.312 64.9585 227.223 64.8771L227.783 64.8272V64.8414L227.803 64.8393C232.695 64.3409 237.115 62.6783 240.585 60.0325C245.111 56.5802 247.604 51.6831 247.604 46.2409C247.604 42.3337 246.52 38.7889 244.47 35.9893C242.745 33.6382 240.293 31.6253 236.97 29.8377Z" fill="#EC008C"/>
<path d="M196.051 1.10303H185.078V63.9605H196.051V1.10303Z" fill="#EC008C"/>
</svg>
